<svg width="22" height="16" viewBox="0 0 22 16" fill="none" xmlns="http://www.w3.org/2000/svg">
<path d="M17.8123 12.2592C17.7251 12.2592 17.6378 12.2272 17.5697 12.1627L13.4878 8.33332C13.3452 8.19996 13.3381 7.97508 13.4722 7.83249C13.6063 7.68848 13.8298 7.68209 13.9738 7.81688L18.0557 11.6462C18.1983 11.7796 18.2054 12.0045 18.0713 12.1471C18.001 12.2216 17.9074 12.2592 17.8123 12.2592Z" fill="#D1A954"/>
<path d="M4.18739 12.2593C4.09304 12.2593 3.99869 12.2217 3.92846 12.1472C3.79438 12.0047 3.80147 11.7798 3.94406 11.6464L8.02739 7.81705C8.17069 7.68368 8.39557 7.68936 8.52894 7.83265C8.66301 7.97524 8.65592 8.20012 8.51333 8.33349L4.43001 12.1628C4.3619 12.2274 4.27465 12.2593 4.18739 12.2593Z" fill="#D1A954"/>
<path d="M20.2265 15.8196H1.77351C0.79595 15.8196 0 15.0244 0 14.0461V1.95295C0 0.974684 0.79595 0.179443 1.77351 0.179443H20.2265C21.2041 0.179443 22 0.974684 22 1.95295V14.0461C22 15.0244 21.2041 15.8196 20.2265 15.8196ZM1.77351 0.888846C1.18683 0.888846 0.709403 1.36627 0.709403 1.95295V14.0461C0.709403 14.6328 1.18683 15.1102 1.77351 15.1102H20.2265C20.8132 15.1102 21.2906 14.6328 21.2906 14.0461V1.95295C21.2906 1.36627 20.8132 0.888846 20.2265 0.888846H1.77351Z" fill="#D1A954"/>
<path d="M10.9999 9.78186C10.5281 9.78186 10.0564 9.62508 9.69744 9.31224L0.588705 1.36622C0.441149 1.23781 0.425543 1.01364 0.553944 0.865378C0.683765 0.717822 0.907227 0.704343 1.05478 0.831326L10.1635 8.77664C10.6168 9.17177 11.383 9.17177 11.8356 8.77664L20.933 0.844096C21.0798 0.715694 21.3033 0.729882 21.4338 0.878147C21.5622 1.02641 21.5473 1.24987 21.3997 1.37899L12.3024 9.31153C11.9427 9.62508 11.4717 9.78186 10.9999 9.78186Z" fill="#D1A954"/>
</svg>
