<svg width="20" height="30" viewBox="0 0 20 30" fill="none" xmlns="http://www.w3.org/2000/svg">
<path d="M17.7627 0H2.23709C1.18978 0 0.33783 0.852011 0.33783 1.89932V28.1007C0.33783 29.148 1.18984 30.0001 2.23715 30.0001H17.7627C18.81 30.0001 19.662 29.1481 19.662 28.1007V1.89932C19.6619 0.852011 18.81 0 17.7627 0ZM1.28958 4.77375H18.7102V24.6138H1.28958V4.77375ZM2.23709 0.951755H17.7627C18.2851 0.951755 18.7102 1.37681 18.7102 1.89932V4.13924H1.28958V1.89932C1.28958 1.37681 1.71464 0.951755 2.23709 0.951755ZM17.7627 29.0482H2.23709C1.71464 29.0482 1.28952 28.6232 1.28952 28.1007V25.2483H18.7102V28.1007C18.7102 28.6232 18.2851 29.0482 17.7627 29.0482Z" fill="#D1A954"/>
<path d="M9.99982 25.6689C9.14038 25.6689 8.44122 26.3682 8.44122 27.2276C8.44122 28.087 9.14045 28.7862 9.99982 28.7862C10.8592 28.7862 11.5584 28.087 11.5584 27.2276C11.5584 26.3682 10.8593 25.6689 9.99982 25.6689ZM9.99982 28.1517C9.49025 28.1517 9.07573 27.7371 9.07573 27.2276C9.07573 26.718 9.49025 26.3034 9.99982 26.3034C10.5094 26.3034 10.9239 26.718 10.9239 27.2276C10.9239 27.7371 10.5094 28.1517 9.99982 28.1517Z" fill="#D1A954"/>
<path d="M7.84264 3.02318H12.1573C12.3325 3.02318 12.4745 2.88111 12.4745 2.70592C12.4745 2.53074 12.3325 2.38867 12.1573 2.38867H7.84264C7.66739 2.38867 7.52539 2.53074 7.52539 2.70592C7.52539 2.88111 7.66739 3.02318 7.84264 3.02318Z" fill="#D1A954"/>
<path d="M6.70067 3.02318C6.78379 3.02318 6.86565 2.98955 6.92465 2.93054C6.98366 2.87089 7.01793 2.78968 7.01793 2.70592C7.01793 2.62217 6.98366 2.54095 6.92465 2.48131C6.86558 2.4223 6.78373 2.38867 6.70067 2.38867C6.61692 2.38867 6.53564 2.4223 6.47606 2.48131C6.41705 2.54032 6.38342 2.62217 6.38342 2.70592C6.38342 2.78968 6.41705 2.87089 6.47606 2.93054C6.53507 2.98955 6.61692 3.02318 6.70067 3.02318Z" fill="#D1A954"/>
</svg>
